<svg width="9" height="9" viewBox="0 0 9 9" fill="none" xmlns="http://www.w3.org/2000/svg">
<path d="M6.43225 5.66038H6.02573L5.88165 5.52144C6.38594 4.93482 6.68954 4.17324 6.68954 3.34477C6.68954 1.49743 5.19211 0 3.34477 0C1.49743 0 0 1.49743 0 3.34477C0 5.19211 1.49743 6.68954 3.34477 6.68954C4.17324 6.68954 4.93482 6.38594 5.52144 5.88165L5.66038 6.02573V6.43225L8.23328 9L9 8.23328L6.43225 5.66038V5.66038ZM3.34477 5.66038C2.06346 5.66038 1.02916 4.62607 1.02916 3.34477C1.02916 2.06346 2.06346 1.02916 3.34477 1.02916C4.62607 1.02916 5.66038 2.06346 5.66038 3.34477C5.66038 4.62607 4.62607 5.66038 3.34477 5.66038Z" fill="#8AC541"/>
</svg>
